<?xml version="1.0" encoding="UTF-8"?>
<svg version="1.1" xmlns="http://www.w3.org/2000/svg" width="1024" height="1024">
<path d="M0 0 C12.4871061 10.85035729 20.02106214 26.37823596 21.1875 42.875 C21.34852632 60.42686936 15.54290111 75.90293869 3.48046875 88.65234375 C-2.2424446 94.19976742 -7.57126436 97.25438218 -14.8125 100.875 C-14.8125 140.145 -14.8125 179.415 -14.8125 219.875 C-11.1825 216.575 -7.5525 213.275 -3.8125 209.875 C13.80172518 198.32158348 30.58431756 195.56719628 51.0769043 195.61621094 C52.98505283 195.61349739 54.89320031 195.60993441 56.80134583 195.60559082 C61.96277955 195.5965048 67.12413294 195.59999625 72.285568 195.60634899 C77.70509534 195.61143231 83.12461605 195.60671073 88.54414368 195.60357666 C97.64882636 195.59994224 106.75347655 195.60472073 115.8581543 195.61425781 C126.35314696 195.62512498 136.84806181 195.62162729 147.34305257 195.610605 C156.37951401 195.60149761 165.41595216 195.60026416 174.45241672 195.60548234 C179.83789105 195.60858522 185.22332896 195.60905831 190.60880089 195.60240936 C195.67894906 195.59658673 200.74899808 195.60072181 205.81913567 195.61219788 C207.66889533 195.61481907 209.51866348 195.61412345 211.36841965 195.60967255 C239.16523942 195.54900981 239.16523942 195.54900981 251.625 200.6875 C252.28822266 200.94740723 252.95144531 201.20731445 253.63476562 201.47509766 C258.54738625 203.45922639 262.87325379 205.8190756 267.1875 208.875 C269.60441693 191.99376486 268.6870791 175.21658174 258.234375 161.16796875 C251.5632502 153.69478124 243.08377363 149.1874858 233.08984375 148.5456543 C228.27001072 148.32377311 223.4490266 148.25291213 218.625 148.1875 C216.93161498 148.15427731 215.2382544 148.11978318 213.54492188 148.08398438 C209.42591713 147.99964678 205.30696223 147.93257259 201.1875 147.875 C200.31483788 142.63600772 200.05339823 137.62177147 200.08984375 132.31640625 C200.0912587 131.52725327 200.09267365 130.73810028 200.09413147 129.92503357 C200.09968445 127.42914885 200.11222792 124.93335715 200.125 122.4375 C200.13002109 120.73502735 200.13458293 119.03255327 200.13867188 117.33007812 C200.14963842 113.17835012 200.16687009 109.02669078 200.1875 104.875 C205.23846715 104.0346803 210.09476605 103.75006849 215.21875 103.85546875 C215.97232788 103.86959305 216.72590576 103.88371735 217.50231934 103.89826965 C219.09243892 103.93121418 220.68249167 103.96754065 222.27246094 104.00708008 C224.65303754 104.06170916 227.0330492 104.0907482 229.4140625 104.11914062 C242.37256604 104.3707105 254.61443455 106.33417699 266.25 112.4375 C266.90427979 112.77410645 267.55855957 113.11071289 268.23266602 113.45751953 C288.38068532 124.2565664 303.4203277 141.94726339 310.1875 163.875 C311.75262065 169.87637656 312.55839984 175.6688994 312.80414295 181.85860729 C312.84175338 182.68124266 312.8793638 183.50387804 312.91811394 184.35144175 C313.26930733 192.61346543 313.33036839 200.86910504 313.32121277 209.13728333 C313.32308764 210.78124995 313.32539099 212.42521613 313.32807809 214.06918162 C313.33411827 218.52565538 313.33407186 222.98211017 313.33288372 227.43858707 C313.33267773 232.2681531 313.33821685 237.09771335 313.34294128 241.92727661 C313.35120353 251.36291911 313.35399403 260.79855536 313.35455366 270.23420117 C313.35503056 277.90573002 313.35709392 285.57725682 313.36025429 293.24878502 C313.3690457 315.03461073 313.37367558 336.82043153 313.37292381 358.60625903 C313.37286388 360.36338371 313.37286388 360.36338371 313.37280273 362.15600586 C313.37274141 363.91529164 313.37274141 363.91529164 313.37267885 365.71011855 C313.37227193 384.74014835 313.38185702 403.77015841 313.3959411 422.8001825 C313.41031338 442.37492782 313.41721094 461.94966351 313.41634732 481.52441424 C313.41601584 492.5005306 313.41874212 503.47662622 313.42952538 514.45273781 C313.43864117 523.79054728 313.44079643 533.12832658 313.43401595 542.46613858 C313.43075735 547.22537739 313.43067044 551.98455832 313.4393692 556.74379158 C313.4472633 561.10771542 313.44577328 565.47153577 313.43708507 569.83545717 C313.43555657 571.40646084 313.43734146 572.97747236 313.44294515 574.54846678 C313.52248006 598.44534136 309.00538237 619.76530514 291.80859375 637.2890625 C290.94363281 638.14242187 290.07867188 638.99578125 289.1875 639.875 C288.58035156 640.48085938 287.97320313 641.08671875 287.34765625 641.7109375 C275.4353908 652.72031731 258.57057704 658.93246344 242.47825623 659.03994751 C241.4954027 659.04841601 241.4954027 659.04841601 240.49269354 659.05705559 C238.28997664 659.07475904 236.08728281 659.08550073 233.88452148 659.09619141 C232.27798174 659.10741915 230.67144457 659.11901861 229.06490993 659.13095474 C224.60192929 659.16259774 220.13893303 659.18761231 215.67590284 659.21110296 C212.76852693 659.22677853 209.86116429 659.24402547 206.9538002 659.26175308 C192.68620428 659.348452 178.41855827 659.41922834 164.15084696 659.4839077 C160.63920199 659.49993518 157.1275595 659.5164322 153.61591721 659.53303528 C61.23706423 659.96665292 -31.14182794 659.91508718 -141.87022514 659.67100047 C-156.14984861 659.63872161 -170.4294703 659.61247539 -184.70911375 659.59086157 C-203.33304749 659.56265264 -221.95691398 659.52410915 -240.58078599 659.46797192 C-249.70317126 659.44068601 -258.82551109 659.41784387 -267.9479332 659.40777969 C-275.5952217 659.3992979 -283.24240053 659.38070584 -290.88962866 659.34878484 C-294.75858626 659.33291898 -298.62740206 659.32164829 -302.49639523 659.32346082 C-306.68541825 659.32528083 -310.87401528 659.30390817 -315.06297302 659.28045654 C-316.26048545 659.2846218 -317.45799788 659.28878706 -318.69179857 659.29307854 C-329.95230397 659.1931586 -340.97862866 657.30797262 -351.25 652.5625 C-352.26525757 652.10411743 -352.26525757 652.10411743 -353.30102539 651.63647461 C-358.27201684 649.31056466 -361.99298042 646.74190816 -365.8125 642.875 C-367.35166466 641.5595668 -368.89350049 640.24725489 -370.4375 638.9375 C-373.27351161 636.43002125 -375.61091688 633.99843996 -377.75 630.875 C-378.430625 629.885 -379.11125 628.895 -379.8125 627.875 C-380.4725 627.875 -381.1325 627.875 -381.8125 627.875 C-381.92980469 627.13894531 -382.04710937 626.40289063 -382.16796875 625.64453125 C-382.81244573 622.87523321 -383.71832965 621.01437432 -385.125 618.5625 C-391.55864626 605.94238438 -392.40153745 592.89159292 -392.32043457 579.0378418 C-392.32505484 577.29476497 -392.33141525 575.55169205 -392.33934355 573.80862713 C-392.35590547 569.06409416 -392.34785092 564.31988666 -392.33539867 559.57535315 C-392.32629621 554.44097124 -392.34034353 549.30664279 -392.35131836 544.17227173 C-392.36905298 534.1319174 -392.36528619 524.09168305 -392.3536678 514.05132413 C-392.34461379 505.88726398 -392.34341797 497.72323732 -392.34776306 489.55917358 C-392.34837599 488.39475855 -392.34898893 487.23034351 -392.34962043 486.03064317 C-392.3508994 483.6647454 -392.35219626 481.29884765 -392.3535108 478.9329499 C-392.36490178 456.77687348 -392.35182615 434.62086339 -392.33030933 412.46479785 C-392.31243972 393.47682422 -392.31554424 374.48894843 -392.33398438 355.50097656 C-392.35541727 333.42116722 -392.36380329 311.34141593 -392.35153532 289.26159763 C-392.3502612 286.9046739 -392.34900371 284.54775016 -392.34776306 282.19082642 C-392.34714596 281.03134308 -392.34652886 279.87185974 -392.34589306 278.67724055 C-392.34244742 270.52825151 -392.34825152 262.37929947 -392.35768127 254.23031616 C-392.36892954 244.29188355 -392.36580188 234.35357723 -392.3445583 224.41515899 C-392.3340859 219.34982848 -392.32986072 214.28470811 -392.34315491 209.21937943 C-392.35516399 204.57323914 -392.34837742 199.92750173 -392.3272447 195.28139746 C-392.32281444 193.61000449 -392.32496328 191.93857675 -392.33474785 190.26720655 C-392.40923357 176.47460488 -390.77922652 162.99018605 -384.125 150.625 C-383.7854126 149.97152588 -383.4458252 149.31805176 -383.09594727 148.64477539 C-372.13073465 128.19451659 -354.52080486 114.09585443 -332.6171875 106.8125 C-320.24285598 103.4523682 -307.74980307 103.81213558 -295.0625 104.3125 C-293.575544 104.36588373 -292.08856469 104.41862213 -290.6015625 104.47070312 C-287.00490971 104.5980511 -283.40864874 104.73405603 -279.8125 104.875 C-280.8025 105.37 -280.8025 105.37 -281.8125 105.875 C-281.64951416 106.69500488 -281.48652832 107.51500977 -281.31860352 108.35986328 C-280.75115686 112.30105818 -280.68694903 116.14688398 -280.71484375 120.1171875 C-280.7162587 120.88555939 -280.71767365 121.65393127 -280.71913147 122.44558716 C-280.72469317 124.88043239 -280.7372384 127.31518294 -280.75 129.75 C-280.75501996 131.40885283 -280.75958199 133.06770712 -280.76367188 134.7265625 C-280.77465002 138.7760777 -280.79188794 142.82552284 -280.8125 146.875 C-285.35296654 148.63912479 -289.00677689 149.08351591 -293.86328125 148.96484375 C-295.21549108 148.94441418 -296.56770478 148.92423996 -297.91992188 148.90429688 C-300.01962374 148.86099649 -302.11905448 148.81265323 -304.21850586 148.75854492 C-316.50484873 148.46529065 -325.46971841 149.44742967 -334.8125 157.875 C-349.39696191 171.98323458 -348.2191035 190.89596064 -348.8125 209.875 C-347.9875 209.35550781 -347.1625 208.83601562 -346.3125 208.30078125 C-333.04469293 200.19775442 -319.49526419 195.69906745 -303.7893219 195.74801636 C-302.62122094 195.74567637 -302.62122094 195.74567637 -301.42952198 195.74328911 C-298.83523791 195.7393192 -296.24101296 195.74245328 -293.64672852 195.74560547 C-291.78005438 195.74424955 -289.91338051 195.74246854 -288.04670715 195.74029541 C-282.98421867 195.73574093 -277.92175059 195.73750325 -272.85926175 195.7406745 C-267.54695663 195.74321171 -262.23465322 195.74085645 -256.92234802 195.73928833 C-247.99225553 195.73746919 -239.06217131 195.73986477 -230.13208008 195.74462891 C-219.84111507 195.75005604 -209.55016992 195.74831914 -199.2592054 195.7428025 C-190.40198554 195.73824615 -181.54477162 195.73763357 -172.68755096 195.74024117 C-167.40764443 195.74179204 -162.12774718 195.74203088 -156.84784126 195.73870468 C-151.872967 195.73578976 -146.89811796 195.73786737 -141.92324638 195.74359894 C-140.10938432 195.74490794 -138.2955201 195.74456457 -136.48165894 195.74233627 C-125.54757728 195.7301555 -114.71810571 196.04675714 -103.8125 196.875 C-103.8125 197.535 -103.8125 198.195 -103.8125 198.875 C-102.81734375 198.96652344 -101.8221875 199.05804688 -100.796875 199.15234375 C-96.45498635 199.77962666 -92.93247936 201.43552628 -89.0625 203.4375 C-88.36801758 203.79102539 -87.67353516 204.14455078 -86.95800781 204.50878906 C-79.07513389 208.62681696 -72.06690815 213.54179615 -65.8125 219.875 C-65.53189452 204.48081001 -65.32043322 189.08681175 -65.19075394 173.69066525 C-65.12893292 166.54135987 -65.04469592 159.39364531 -64.90722656 152.24536133 C-64.78743026 146.01307707 -64.71016039 139.78194473 -64.68343806 133.54854113 C-64.66781877 130.24852833 -64.62494 126.95256979 -64.54373932 123.65342522 C-63.52471491 110.93875041 -63.52471491 110.93875041 -66.96702576 99.13313675 C-70.12421345 96.1996209 -73.79805974 95.15911761 -77.8125 93.875 C-80.70245361 91.86997986 -80.70245361 91.86997986 -82.8125 89.875 C-82.8125 89.215 -82.8125 88.555 -82.8125 87.875 C-83.4725 87.875 -84.1325 87.875 -84.8125 87.875 C-86.72265625 85.609375 -86.72265625 85.609375 -88.875 82.625 C-89.58785156 81.65046875 -90.30070312 80.6759375 -91.03515625 79.671875 C-92.59671111 77.21457109 -93.19807131 75.63676196 -93.8125 72.875 C-94.4725 72.545 -95.1325 72.215 -95.8125 71.875 C-102.07935832 57.90036338 -102.09330493 39.44191169 -97.203125 25.046875 C-90.02213371 8.66776004 -78.89759853 -3.20981847 -62.67578125 -10.54296875 C-40.95575755 -18.75094496 -18.22194947 -13.86397275 0 0 Z M-59.8125 32.875 C-63.74316919 39.32417577 -63.60656929 45.51941077 -62.8125 52.875 C-61.78107182 55.94695927 -60.57276485 58.12458617 -58.8125 60.875 C-58.1525 60.875 -57.4925 60.875 -56.8125 60.875 C-56.4825 61.865 -56.1525 62.855 -55.8125 63.875 C-48.71467041 68.42832464 -42.12688745 70.24971904 -33.6953125 68.4140625 C-26.98295151 66.19402093 -21.8071028 62.19187066 -18.4375 55.9375 C-15.56927923 49.36915027 -15.41612827 44.13942595 -17.6640625 37.375 C-20.34651113 31.53565605 -24.94129325 26.57258148 -30.8125 23.875 C-42.18926678 20.47643196 -52.03869407 24.17171727 -59.8125 32.875 Z M-338.14453125 249.96484375 C-347.80622954 261.02941158 -348.96662422 274.24960083 -348.94621277 288.35961914 C-348.94847833 289.51066195 -348.95074388 290.66170475 -348.95307809 291.84762764 C-348.9583009 295.02950926 -348.95906508 298.21135521 -348.95788372 301.39323974 C-348.95767914 304.83038596 -348.96320401 308.26752383 -348.96794128 311.70466614 C-348.97623735 318.4351493 -348.97899569 325.1656237 -348.97955366 331.89611155 C-348.9800295 337.37159923 -348.98208767 342.84708403 -348.98525429 348.3225708 C-348.99405954 363.86575082 -348.99867409 379.40892394 -348.99792381 394.95210648 C-348.99788386 395.78952755 -348.9978439 396.62694862 -348.99780273 397.48974609 C-348.99776185 398.32819691 -348.99772097 399.16664772 -348.99767885 400.03050613 C-348.99727286 413.6028784 -349.00683099 427.17522286 -349.0209411 440.74758708 C-349.03533359 454.70240624 -349.04220964 468.65721186 -349.04134732 482.61203861 C-349.04101625 490.43889096 -349.04372365 498.26571418 -349.05452538 506.09255981 C-349.06366845 512.76009366 -349.06577472 519.42758521 -349.05901595 526.09512264 C-349.05576927 529.49142441 -349.05673086 532.88757958 -349.0643692 536.28388405 C-349.90905166 567.51158767 -349.90905166 567.51158767 -335.6015625 594.35546875 C-327.03437477 601.63196663 -316.78528945 607.03595994 -305.390625 606.97265625 C-304.36582031 606.96943359 -303.34101563 606.96621094 -302.28515625 606.96289062 C-300.68994141 606.95032227 -300.68994141 606.95032227 -299.0625 606.9375 C-297.98355469 606.93298828 -296.90460938 606.92847656 -295.79296875 606.92382812 C-293.13275617 606.91205727 -290.47265635 606.89561399 -287.8125 606.875 C-287.57015625 605.99457031 -287.3278125 605.11414063 -287.078125 604.20703125 C-286.74296875 603.04558594 -286.4078125 601.88414062 -286.0625 600.6875 C-285.73765625 599.53894531 -285.4128125 598.39039063 -285.078125 597.20703125 C-283.77800492 593.78418424 -282.15655806 591.64748884 -279.8125 588.875 C-279.8125 588.215 -279.8125 587.555 -279.8125 586.875 C-272.25677648 583.66954154 -265.91715541 581.92176536 -257.8125 583.875 C-252.27194727 586.25088024 -248.49645382 589.40768666 -245.8125 594.875 C-244.8225 598.835 -243.8325 602.795 -242.8125 606.875 C-234.2325 606.875 -225.6525 606.875 -216.8125 606.875 C-215.8225 602.915 -214.8325 598.955 -213.8125 594.875 C-210.77615521 589.47705371 -207.68296843 586.05579651 -201.8125 583.875 C-195.25763674 582.13423961 -189.90700232 583.02377085 -183.8125 585.875 C-178.97924207 588.77495476 -176.68110203 592.67718562 -174.8125 597.875 C-174.1525 600.845 -173.4925 603.815 -172.8125 606.875 C-163.9025 606.875 -154.9925 606.875 -145.8125 606.875 C-145.1525 603.575 -144.4925 600.275 -143.8125 596.875 C-140.85979874 590.4423294 -137.38017068 586.46906563 -130.875 583.5625 C-123.36180268 581.87586387 -117.4861218 583.22660234 -110.8125 586.875 C-104.62516992 591.84250016 -103.01551948 599.43907325 -101.8125 606.875 C-100.7387915 606.83834229 -99.66508301 606.80168457 -98.55883789 606.76391602 C-94.53924105 606.63631202 -90.51981935 606.55653334 -86.4987793 606.49047852 C-84.76539921 606.45547866 -83.03222274 606.40786019 -81.29956055 606.34692383 C-65.05487179 605.79031054 -65.05487179 605.79031054 -59.48828125 610.046875 C-58.22335717 611.28360961 -56.99352868 612.55791357 -55.8125 613.875 C-54.75620843 614.86194461 -53.69661315 615.84537263 -52.6328125 616.82421875 C-51.29863281 618.17966797 -51.29863281 618.17966797 -49.9375 619.5625 C-49.03257812 620.47386719 -48.12765625 621.38523437 -47.1953125 622.32421875 C-45.2263939 624.43192998 -43.47517059 626.52413794 -41.8125 628.875 C-37.74650717 628.36447175 -36.25377548 626.44316699 -33.6875 623.375 C-20.5635483 608.24872068 -20.5635483 608.24872068 -13.63671875 607.55859375 C-12.25821414 607.47006905 -10.87924846 607.38856092 -9.5 607.3125 C-8.76467041 607.2700415 -8.02934082 607.22758301 -7.27172852 607.18383789 C2.20939291 606.69426726 11.69729881 606.79150849 21.1875 606.875 C21.39503906 606.029375 21.60257813 605.18375 21.81640625 604.3125 C24.07178189 596.00818803 26.55510272 589.42305899 34.06640625 584.69140625 C39.37178236 582.27987165 44.59932648 582.54187364 50.1875 583.875 C55.55865734 585.89438861 58.96170285 589.26671835 62.1875 593.875 C64.08099553 598.3247145 64.48138381 601.9321867 65.1875 606.875 C74.4275 606.875 83.6675 606.875 93.1875 606.875 C93.8475 603.245 94.5075 599.615 95.1875 595.875 C97 592.5 97 592.5 99.1875 589.875 C99.93 588.9675 100.6725 588.06 101.4375 587.125 C106.23282687 583.20155074 111.12333276 582.63269666 117.125 582.875 C122.81252141 583.63742583 127.02440812 585.95879905 131.1875 589.875 C135.00656819 595.02479167 135.79275914 600.59866612 137.1875 606.875 C146.0975 606.875 155.0075 606.875 164.1875 606.875 C164.5175 603.905 164.8475 600.935 165.1875 597.875 C167.40760788 592.2949302 170.61899202 587.07877021 176.2109375 584.4921875 C183.57864046 582.19160041 190.2606592 582.32911721 197.1875 585.875 C202.44134004 590.07807203 205.68655337 595.09702325 206.875 601.6875 C207.0296875 603.2653125 207.0296875 603.2653125 207.1875 604.875 C207.5175 605.535 207.8475 606.195 208.1875 606.875 C226.12513026 607.59347792 240.6455364 607.90084629 254.78125 595.32421875 C264.86749348 585.05786378 269.18197582 573.23972911 269.25 559 C269.23323103 557.62494443 269.21317275 556.24991816 269.1875 554.875 C269.1875 552.74697702 269.18885882 550.61895786 269.19029331 548.49093533 C269.19091001 547.56388709 269.19152671 546.63683886 269.1921621 545.68169826 C269.19284422 544.65634584 269.19352634 543.63099341 269.19422913 542.5745697 C269.21406281 512.09999 269.22906902 481.625412 269.23856533 451.15082734 C269.23981585 447.1525535 269.2411102 443.15427968 269.24243164 439.15600586 C269.24269395 438.36011138 269.24295626 437.5642169 269.24322652 436.74420441 C269.24757012 423.88095961 269.25545097 411.01771931 269.2646528 398.15447717 C269.27403045 384.93431697 269.27956421 371.71415912 269.28158849 358.49399573 C269.28295493 350.34975653 269.28725761 342.20553007 269.29541647 334.0612948 C269.30073475 328.46485947 269.30229283 322.86843065 269.30100138 317.27199297 C269.30036593 314.05171446 269.30184534 310.8314625 269.30670547 307.61118698 C270.83873191 274.8239766 270.83873191 274.8239766 256.1875 246.875 C245.18525272 237.53975988 233.8359725 234.71197253 219.72689819 234.74128723 C218.50639627 234.7378889 218.50639627 234.7378889 217.26123774 234.73442191 C214.55484037 234.72812924 211.84849369 234.72890822 209.14208984 234.72973633 C207.19320613 234.72674182 205.24432302 234.72333862 203.29544067 234.71955872 C198.01414791 234.71074271 192.73287136 234.70838157 187.45157194 234.70774293 C184.14678626 234.70703089 180.84200467 234.70489363 177.53722 234.70224571 C165.99274688 234.69299917 154.44828529 234.68890983 142.90380859 234.68969727 C132.16799552 234.69029739 121.43223281 234.6797566 110.69643247 234.6639536 C101.45960835 234.65084499 92.22280062 234.64551478 82.98596728 234.64615268 C77.47808792 234.64640675 71.97025331 234.64360587 66.46238327 234.63297462 C61.27654398 234.62323801 56.09079169 234.62325234 50.90494919 234.63049126 C49.01122916 234.63153032 47.11750356 234.62921496 45.22379303 234.6231308 C25.86704346 234.56501396 8.1778958 235.71329052 -7.8125 247.875 C-8.72708984 248.54402344 -8.72708984 248.54402344 -9.66015625 249.2265625 C-12.74612365 251.60487308 -14.20152024 253.048308 -14.8125 256.875 C-14.90371108 258.75096479 -14.94039583 260.62987638 -14.94189453 262.50805664 C-14.94499634 263.65547836 -14.94809814 264.80290009 -14.95129395 265.98509216 C-14.94833313 267.86612389 -14.94833313 267.86612389 -14.9453125 269.78515625 C-14.94641515 271.12016327 -14.94784747 272.45517005 -14.94958496 273.79017639 C-14.9525149 277.41461099 -14.94813519 281.03900077 -14.94147491 284.66342926 C-14.93749096 286.94267272 -14.93498143 289.22191382 -14.93280029 291.50115967 C-14.87791001 362.72980605 -14.87791001 362.72980605 -11.8125 433.875 C-11.73918457 435.04530762 -11.66586914 436.21561523 -11.59033203 437.42138672 C-10.59154424 452.53699038 -8.73399279 466.68084999 1.1875 478.875 C1.8475 478.875 2.5075 478.875 3.1875 478.875 C3.1875 479.535 3.1875 480.195 3.1875 480.875 C8.54141726 485.41886832 14.45604635 488.09938034 21.1875 489.875 C22.425 490.2153125 22.425 490.2153125 23.6875 490.5625 C40.33659883 492.64363735 54.80748924 485.90783604 67.8125 476.0625 C76.3850548 469.3631094 83.54025898 462.24277628 89.1875 452.875 C87.39624151 452.12402565 85.60446564 451.37428538 83.8125 450.625 C82.72582031 450.16996094 81.63914062 449.71492187 80.51953125 449.24609375 C76.72245391 447.68363871 72.89544303 446.21051294 69.05078125 444.76953125 C67.1875 443.875 67.1875 443.875 66.1875 441.875 C66.98929688 441.8028125 67.79109375 441.730625 68.6171875 441.65625 C73.30455693 440.63056741 77.10342029 438.63194552 81.3125 436.375 C82.57501587 435.70223022 82.57501587 435.70223022 83.86303711 435.01586914 C94.82937982 429.0444522 104.11860349 421.43423951 113.1875 412.875 C113.93644531 412.19050781 114.68539063 411.50601563 115.45703125 410.80078125 C124.80623756 401.94277668 131.86394341 391.03119333 138.1875 379.875 C151.50781382 417.12014931 153.5113723 458.299763 140.1875 495.875 C139.8575 496.535 139.5275 497.195 139.1875 497.875 C138.8575 497.215 138.5275 496.555 138.1875 495.875 C137.5275 495.875 136.8675 495.875 136.1875 495.875 C136.1875 495.215 136.1875 494.555 136.1875 493.875 C134.54214711 492.31911702 134.54214711 492.31911702 132.4375 490.8125 C131.39335938 490.02166016 131.39335938 490.02166016 130.328125 489.21484375 C128.21705223 487.89349711 126.58979252 487.41083317 124.1875 486.875 C123.85540527 487.3282666 123.52331055 487.7815332 123.18115234 488.24853516 C121.64687021 490.33628708 120.10475802 492.41813397 118.5625 494.5 C118.04042969 495.21285156 117.51835938 495.92570312 116.98046875 496.66015625 C114.42661398 500.09682502 111.87055355 503.29339471 108.7890625 506.2734375 C107.93054688 507.13195312 107.07203125 507.99046875 106.1875 508.875 C106.1875 509.535 106.1875 510.195 106.1875 510.875 C105.630625 511.101875 105.07375 511.32875 104.5 511.5625 C101.54388955 513.24029242 99.5837062 515.46160437 97.1875 517.875 C78.99715876 534.36791385 57.73546537 546.29356764 35.78735352 557.0859375 C12.92118857 568.36523182 -10.01403266 580.27818452 -27.8125 598.875 C-28.658125 599.7 -29.50375 600.525 -30.375 601.375 C-32.88912509 603.95358983 -35.19168328 606.64392958 -37.48046875 609.421875 C-38.8125 610.875 -38.8125 610.875 -40.8125 611.875 C-41.07675781 611.29363281 -41.34101563 610.71226562 -41.61328125 610.11328125 C-43.71162882 606.19682145 -46.81805815 603.1276894 -49.8125 599.875 C-50.58400391 599.02228516 -50.58400391 599.02228516 -51.37109375 598.15234375 C-69.12337452 579.42612239 -94.72766483 567.24331464 -117.58325195 556.00537109 C-151.82888447 539.05174839 -182.18289015 518.1956919 -204.8125 486.875 C-209.06896943 488.85344693 -212.56851284 491.07928085 -216.1875 494.0625 C-217.06148437 494.77792969 -217.93546875 495.49335937 -218.8359375 496.23046875 C-219.48820313 496.77316406 -220.14046875 497.31585937 -220.8125 497.875 C-221.06 496.59625 -221.3075 495.3175 -221.5625 494 C-222.21075398 490.67538314 -222.9326166 487.40142552 -223.765625 484.1171875 C-231.66100625 452.67711675 -231.33615523 416.23259634 -219.765625 385.703125 C-218.59958843 382.74064866 -218.59958843 382.74064866 -218.8125 378.875 C-218.1525 378.875 -217.4925 378.875 -216.8125 378.875 C-216.70679688 379.5865625 -216.60109375 380.298125 -216.4921875 381.03125 C-213.91552959 391.81174977 -205.12240138 400.87979537 -197.8125 408.875 C-196.94625 409.82503906 -196.08 410.77507812 -195.1875 411.75390625 C-185.0328172 422.37703424 -173.58288261 430.20388538 -160.625 437.0625 C-159.71572754 437.54460937 -158.80645508 438.02671875 -157.86962891 438.5234375 C-152.64286638 441.24690805 -152.64286638 441.24690805 -146.8125 441.875 C-146.8125 442.535 -146.8125 443.195 -146.8125 443.875 C-147.39515625 444.03355469 -147.9778125 444.19210937 -148.578125 444.35546875 C-155.5618444 446.3429738 -162.15783188 448.98216317 -168.8125 451.875 C-167.37893221 456.39943937 -164.8454012 459.38181955 -161.625 462.75 C-161.12524658 463.27956299 -160.62549316 463.80912598 -160.1105957 464.35473633 C-159.1200813 465.40133875 -158.12659864 466.44514154 -157.12988281 467.48583984 C-156.07205858 468.60129942 -155.04281789 469.74383329 -154.0234375 470.89453125 C-143.28110358 482.65600967 -127.6468193 489.92061941 -111.9375 491.1875 C-99.40086696 490.73345695 -88.88519638 485.54545509 -80.375 476.4375 C-66.94765469 460.1876719 -67.64192243 437.03090885 -67.28997421 416.98571587 C-67.22340985 413.43074486 -67.12768017 409.87671088 -67.03407478 406.32236576 C-66.86114489 399.75522174 -66.69873918 393.18838952 -66.58789062 386.61987305 C-66.5087936 381.99960774 -66.39180422 377.38161949 -66.25018692 372.76286507 C-66.20371442 371.02143628 -66.17092868 369.27958068 -66.1527977 367.53762627 C-66.02902811 356.35266473 -65.00478156 350.12252101 -56.8125 341.875 C-55.50182325 339.68840033 -54.70852845 337.65807645 -53.8125 335.25 C-53.420625 334.22648437 -53.02875 333.20296875 -52.625 332.1484375 C-52.356875 331.39820313 -52.08875 330.64796875 -51.8125 329.875 C-56.02006091 329.875 -57.10920772 331.70521409 -60.125 334.5625 C-62.99212232 337.25901592 -65.82903398 339.88789651 -68.9375 342.3125 C-73.47410544 346.35599616 -77.07267449 351.10114989 -80.8125 355.875 C-81.57046875 356.81730469 -82.3284375 357.75960937 -83.109375 358.73046875 C-97.40758408 376.99766346 -105.30989427 397.44802513 -103.8125 420.875 C-101.9161538 436.00097404 -96.18166761 448.32124859 -87.8125 460.875 C-87.1525 460.875 -86.4925 460.875 -85.8125 460.875 C-85.8125 461.535 -85.8125 462.195 -85.8125 462.875 C-85.1525 463.205 -84.4925 463.535 -83.8125 463.875 C-84.235173 468.66529404 -86.46370175 471.60722106 -89.8125 474.875 C-95.62107593 479.32412199 -101.20314489 481.48753588 -108.5234375 481.23046875 C-115.35287056 480.16992539 -119.24940595 475.66604474 -123.375 470.4375 C-138.74075649 448.80378433 -145.14261591 421.77631282 -142.43359375 395.421875 C-138.69275806 374.05911519 -130.11901684 354.91170435 -116.8125 337.875 C-116.19117188 337.04355469 -115.56984375 336.21210938 -114.9296875 335.35546875 C-100.03877724 315.91993003 -81.61655453 300.4479174 -61.76171875 286.37109375 C-60.79685547 285.63052734 -60.79685547 285.63052734 -59.8125 284.875 C-59.8125 284.545 -59.8125 284.215 -59.8125 283.875 C-61.4625 283.875 -63.1125 283.875 -64.8125 283.875 C-64.80726318 283.2452124 -64.80202637 282.6154248 -64.79663086 281.96655273 C-64.77569862 279.08187885 -64.7627885 276.19722102 -64.75 273.3125 C-64.74162109 272.32185547 -64.73324219 271.33121094 -64.72460938 270.31054688 C-64.27207519 260.92605478 -64.27207519 260.92605478 -67.53515625 252.50390625 C-82.05380235 239.68192997 -98.19588915 234.70089239 -117.29292297 234.74128723 C-118.49844725 234.7378889 -118.49844725 234.7378889 -119.72832555 234.73442191 C-122.39482646 234.72814172 -125.06127576 234.72890739 -127.7277832 234.72973633 C-129.65050318 234.72674112 -131.57322256 234.72333775 -133.49594116 234.71955872 C-138.70059663 234.71075181 -143.90523565 234.70838201 -149.10989785 234.70774293 C-152.36626305 234.7070306 -155.6226241 234.70489282 -158.87898827 234.70224571 C-170.25258015 234.69300354 -181.62616034 234.68890945 -192.99975586 234.68969727 C-203.5805557 234.69029789 -214.16130454 234.67974609 -224.74209148 234.6639536 C-233.84472305 234.65085431 -242.94733799 234.64551437 -252.04997891 234.64615268 C-257.47841417 234.64640694 -262.90680405 234.64359522 -268.33522987 234.63297462 C-273.44310293 234.62325326 -278.55088761 234.62324204 -283.65876389 234.63049126 C-285.52591138 234.63153206 -287.3930645 234.62920441 -289.26020241 234.6231308 C-307.97089188 234.56624205 -324.43324614 235.70873936 -338.14453125 249.96484375 Z M131.1875 435.875 C130.98181396 436.41801758 130.77612793 436.96103516 130.56420898 437.52050781 C122.70190832 458.12335391 112.50813249 475.90010562 97.1875 491.875 C96.50429688 492.60976563 95.82109375 493.34453125 95.1171875 494.1015625 C81.40729959 508.41853032 64.35676928 519.31251557 47.00097656 528.65258789 C46.27233398 529.04567139 45.54369141 529.43875488 44.79296875 529.84375 C44.14481201 530.18857422 43.49665527 530.53339844 42.82885742 530.88867188 C41.00911328 531.89213473 41.00911328 531.89213473 39.1875 533.875 C62.73648176 529.48451188 84.76649151 516.04845362 101.1875 498.875 C101.868125 498.215 102.54875 497.555 103.25 496.875 C119.44290624 480.15974195 131.2222538 459.52353194 132.1875 435.875 C131.8575 435.875 131.5275 435.875 131.1875 435.875 Z M-211.8125 436.875 C-211.36456979 442.73345561 -210.9253416 448.35813583 -208.8125 453.875 C-207.8225 454.205 -206.8325 454.535 -205.8125 454.875 C-206.4725 455.865 -207.1325 456.855 -207.8125 457.875 C-204.54159026 470.91723504 -195.37295422 482.80998109 -186.8125 492.875 C-186.22597656 493.58398438 -185.63945312 494.29296875 -185.03515625 495.0234375 C-176.59298717 505.01620906 -165.6505098 514.55485777 -153.69140625 519.97265625 C-150.83129804 521.34622173 -148.22486071 523.08759126 -145.57421875 524.82421875 C-143.68419219 526.03686886 -143.68419219 526.03686886 -140.8125 526.875 C-138.26806261 527.95471192 -135.72532072 529.03762201 -133.1875 530.1328125 C-130.70287427 531.16334785 -130.70287427 531.16334785 -127.8125 529.875 C-130.5466297 526.70340955 -134.04477136 524.87091601 -137.625 522.8125 C-150.20748291 515.39163051 -161.30002719 507.00520107 -171.8125 496.875 C-172.64136719 496.12089844 -173.47023438 495.36679687 -174.32421875 494.58984375 C-185.88344505 483.73794531 -194.55033189 470.12360732 -202.0078125 456.23046875 C-203.1021421 454.19577367 -204.24088844 452.18306618 -205.45703125 450.21875 C-206.80379379 447.89005397 -207.61097699 445.75898317 -208.375 443.1875 C-209.24276121 440.27044959 -209.61965898 439.06784102 -211.8125 436.875 Z M-40.8125 477.875 C-41.02003906 478.68582031 -41.22757812 479.49664063 -41.44140625 480.33203125 C-43.72076632 488.5243756 -46.8337383 494.99794331 -51.8125 501.875 C-52.575625 502.9475 -53.33875 504.02 -54.125 505.125 C-60.02151127 511.15863944 -67.09428228 515.2627403 -74.68359375 518.83203125 C-77.02339328 519.9202088 -77.02339328 519.9202088 -79.8125 521.875 C-79.29042969 522.08253906 -78.76835937 522.29007813 -78.23046875 522.50390625 C-70.86373305 525.58735605 -63.28140596 529.3752867 -57.61328125 535.09375 C-55.99766879 537.10941359 -55.99766879 537.10941359 -53.8125 536.875 C-53.42191406 537.74898437 -53.42191406 537.74898437 -53.0234375 538.640625 C-51.73661249 541.01502469 -50.28997199 542.66736584 -48.4375 544.625 C-44.99252001 548.45115731 -42.90596289 552.18564312 -40.8125 556.875 C-40.4825 556.875 -40.1525 556.875 -39.8125 556.875 C-39.8125 530.805 -39.8125 504.735 -39.8125 477.875 C-40.1425 477.875 -40.4725 477.875 -40.8125 477.875 Z M-127.8125 529.875 C-127.8125 530.535 -127.8125 531.195 -127.8125 531.875 C-124.8425 532.37 -124.8425 532.37 -121.8125 532.875 C-124.48497634 530.53212582 -124.48497634 530.53212582 -127.8125 529.875 Z " fill="#000000" transform="translate(551.8125,155.125)"/>
<path d="M0 0 C0.94513458 -0.00137466 1.89026917 -0.00274933 2.86404419 -0.00416565 C4.42418243 0.00122726 4.42418243 0.00122726 6.01583862 0.00672913 C7.10853058 0.0065831 8.20122253 0.00643707 9.32702637 0.00628662 C12.95232096 0.00698538 16.57756468 0.01477609 20.20285034 0.02259827 C22.71105928 0.02446258 25.21926859 0.02588642 27.72747803 0.02688599 C33.66313583 0.03031891 39.59877721 0.03820688 45.53442657 0.04823548 C52.95384581 0.06049947 60.37326731 0.06587822 67.79269409 0.07142639 C81.0309865 0.08216192 94.26925694 0.09975792 107.50753784 0.12025452 C107.50753784 14.64025452 107.50753784 29.16025452 107.50753784 44.12025452 C63.28753784 44.12025452 19.06753784 44.12025452 -26.49246216 44.12025452 C-29.34131506 27.02713711 -29.34131506 27.02713711 -26.42214966 20.85853577 C-24.58989609 18.73625211 -22.60056464 16.97272882 -20.49246216 15.12025452 C-19.31384652 13.94335848 -18.14404446 12.75760299 -16.98074341 11.56556702 C-14.50173935 9.0298872 -12.01839726 6.49999268 -9.50418091 3.99916077 C-8.97268433 3.46879211 -8.44118774 2.93842346 -7.89358521 2.39198303 C-5.29564395 0.03396317 -3.40106233 -0.00380432 0 0 Z " fill="#000000" transform="translate(579.4924621582031,258.87974548339844)"/>
<path d="M0 0 C5.11717323 -0.02572147 10.23338184 -0.06558635 15.35012245 -0.13830566 C20.36936348 -0.20939459 25.38776382 -0.24607629 30.40748215 -0.25837708 C32.30170584 -0.26873354 34.19590604 -0.29105198 36.08983612 -0.32597351 C52.61274333 -0.61579075 52.61274333 -0.61579075 57.75344276 3.82116699 C58.77940523 4.99628424 59.7720446 6.20207504 60.71511269 7.44470215 C61.64839394 8.33415527 62.58167519 9.2236084 63.54323769 10.14001465 C64.34245644 10.94181152 65.14167519 11.7436084 65.96511269 12.56970215 C66.77464394 13.37665527 67.58417519 14.1836084 68.41823769 15.01501465 C69.17620644 15.81681152 69.93417519 16.6186084 70.71511269 17.44470215 C71.45890175 18.21169434 72.20269081 18.97868652 72.96901894 19.7689209 C75.27599785 23.30422416 75.28358643 25.94165702 75.40261269 30.13220215 C75.36988296 34.93520512 75.36988296 34.93520512 76.71511269 39.44470215 C76.05511269 39.44470215 75.39511269 39.44470215 74.71511269 39.44470215 C74.90073769 40.08407715 75.08636269 40.72345215 75.27761269 41.38220215 C75.49417519 42.40313965 75.49417519 42.40313965 75.71511269 43.44470215 C74.71511269 44.44470215 74.71511269 44.44470215 72.51495457 44.56774998 C71.04515565 44.56636729 71.04515565 44.56636729 69.54566383 44.56495667 C68.42520668 44.56633133 67.30474953 44.56770599 66.15033913 44.56912231 C64.91028618 44.56552704 63.67023323 44.56193176 62.39260292 44.55822754 C60.44654655 44.55844658 60.44654655 44.55844658 58.46117592 44.55867004 C54.89315339 44.55895801 51.32516421 44.55306147 47.75714946 44.54609609 C44.03220649 44.53986236 40.30726283 44.53925873 36.58231544 44.53807068 C29.52393906 44.53495742 22.46557809 44.5267441 15.4072085 44.51672119 C7.37348298 44.50555989 -0.66024327 44.50004956 -8.69397461 44.49502575 C-25.2242893 44.48456148 -41.75458275 44.46621607 -58.28488731 44.44470215 C-58.61488731 30.25470215 -58.94488731 16.06470215 -59.28488731 1.44470215 C-39.52863437 0.37535152 -19.78210314 0.09843914 0 0 Z " fill="#000000" transform="translate(394.2848873138428,258.5552978515625)"/>
<path d="M0 0 C6.29372081 6.22493698 7.69462998 13.68188068 7.87890625 22.234375 C7.90123322 22.96733292 7.92356018 23.70029083 7.94656372 24.45545959 C8.01438037 26.81652338 8.06730431 29.17755597 8.1171875 31.5390625 C8.13615082 32.34308502 8.15511414 33.14710754 8.1746521 33.97549438 C8.39508964 43.51664479 8.57632296 53.06123364 8.2421875 62.6015625 C8.22438232 63.38740723 8.20657715 64.17325195 8.18823242 64.98291016 C7.77252322 73.0923551 4.45271585 80.90363231 -1.5703125 86.4140625 C-8.737016 90.29749789 -15.64592769 91.4703141 -23.5703125 89.4140625 C-29.4994771 86.95957017 -33.63283499 83.09244178 -36.5703125 77.4140625 C-38.58886697 71.13338451 -38.85451621 64.91223401 -38.80078125 58.3671875 C-38.80032303 57.43412781 -38.79986481 56.50106812 -38.7993927 55.53973389 C-38.79638957 53.57660644 -38.78856198 51.61348096 -38.77612305 49.65039062 C-38.75794768 46.68610938 -38.75561333 43.72214354 -38.75585938 40.7578125 C-38.6986991 8.74519927 -38.6986991 8.74519927 -31.890625 1.66796875 C-22.65953274 -6.59247218 -10.07607878 -8.24406446 0 0 Z " fill="#000000" transform="translate(735.5703125,231.5859375)"/>
<path d="M0 0 C5.4135905 4.78083317 7.11210106 10.91356021 7.78057861 17.95584106 C7.89388653 21.20478317 7.91601342 24.44054513 7.8984375 27.69140625 C7.90130768 28.87669418 7.90417786 30.06198212 7.90713501 31.28318787 C7.90916582 33.77497845 7.90370526 36.26678533 7.89111328 38.75854492 C7.87503224 42.55488965 7.89100404 46.35017215 7.91015625 50.14648438 C7.90817392 52.57812733 7.90433047 55.00976963 7.8984375 57.44140625 C7.90754654 59.12925987 7.90754654 59.12925987 7.9168396 60.85121155 C7.83564681 70.02258098 6.54973608 77.75186345 0.0859375 84.5625 C-5.23943857 89.38944186 -11.53379513 90.15480455 -18.5 90 C-26.14954909 88.66132891 -31.29633054 85.09704897 -35.8125 78.75 C-37.62886191 74.73265129 -37.88945356 70.75675861 -38.09375 66.41015625 C-38.13248734 65.66933304 -38.17122467 64.92850983 -38.21113586 64.16523743 C-38.59588551 56.16000968 -38.68610367 48.15476321 -38.68530273 40.14135742 C-38.68751429 37.67154297 -38.7058457 35.20215955 -38.72460938 32.73242188 C-38.80877717 10.81923453 -38.80877717 10.81923453 -34.51171875 3.7109375 C-33.74472656 2.94007813 -32.97773438 2.16921875 -32.1875 1.375 C-31.42824219 0.57835937 -30.66898437 -0.21828125 -29.88671875 -1.0390625 C-20.90652915 -8.41722155 -8.60668023 -7.12190206 0 0 Z " fill="#000000" transform="translate(318.5,232)"/>
<path d="M0 0 C2.31 0 4.62 0 7 0 C7 0.33 7 0.66 7 1 C4.69 1 2.38 1 0 1 C0 0.67 0 0.34 0 0 Z " fill="#171616" transform="translate(509,179)"/>
<path d="M0 0 C1.98 0 3.96 0 6 0 C6 0.33 6 0.66 6 1 C4.02 1 2.04 1 0 1 C0 0.67 0 0.34 0 0 Z " fill="#0E0D0D" transform="translate(468,760)"/>
<path d="M0 0 C4 1 4 1 4 1 Z " fill="#101010" transform="translate(640,815)"/>
<path d="M0 0 C4 1 4 1 4 1 Z " fill="#110F0F" transform="translate(694,760)"/>
<path d="M0 0 C4 1 4 1 4 1 Z " fill="#0E0D0D" transform="translate(456,760)"/>
<path d="M0 0 C1 4 1 4 1 4 Z " fill="#181818" transform="translate(321,610)"/>
<path d="M0 0 C1 4 1 4 1 4 Z " fill="#151414" transform="translate(450,208)"/>
<path d="M0 0 C3 1 3 1 3 1 Z " fill="#101011" transform="translate(344,815)"/>
<path d="M0 0 C3 1 3 1 3 1 Z " fill="#0D0C0C" transform="translate(564,760)"/>
<path d="M0 0 C3 1 3 1 3 1 Z " fill="#0E0E0D" transform="translate(464,760)"/>
<path d="M0 0 C3 1 3 1 3 1 Z " fill="#141616" transform="translate(246,760)"/>
<path d="" fill="#111111" transform="translate(0,0)"/>
<path d="" fill="#1A1919" transform="translate(0,0)"/>
<path d="" fill="#141515" transform="translate(0,0)"/>
<path d="M0 0 C3 1 3 1 3 1 Z " fill="#1A1919" transform="translate(208,264)"/>
<path d="M0 0 C2 1 2 1 2 1 Z " fill="#101010" transform="translate(680,815)"/>
<path d="M0 0 C2 1 2 1 2 1 Z " fill="#0F0F0F" transform="translate(632,815)"/>
<path d="M0 0 C2 1 2 1 2 1 Z " fill="#121210" transform="translate(628,815)"/>
<path d="M0 0 C2 1 2 1 2 1 Z " fill="#101010" transform="translate(624,815)"/>
<path d="M0 0 C2 1 2 1 2 1 Z " fill="#100F0F" transform="translate(616,815)"/>
<path d="M0 0 C2 1 2 1 2 1 Z " fill="#101011" transform="translate(604,815)"/>
<path d="M0 0 C2 1 2 1 2 1 Z " fill="#100F10" transform="translate(601,815)"/>
<path d="M0 0 C2 1 2 1 2 1 Z " fill="#0F0E0D" transform="translate(528,815)"/>
<path d="M0 0 C2 1 2 1 2 1 Z " fill="#111212" transform="translate(404,815)"/>
<path d="M0 0 C2 1 2 1 2 1 Z " fill="#111212" transform="translate(352,815)"/>
<path d="" fill="#181719" transform="translate(0,0)"/>
<path d="M0 0 C2 1 2 1 2 1 Z " fill="#171516" transform="translate(776,760)"/>
<path d="M0 0 C2 1 2 1 2 1 Z " fill="#121310" transform="translate(712,760)"/>
<path d="M0 0 C2 1 2 1 2 1 Z " fill="#111111" transform="translate(703,760)"/>
<path d="M0 0 C2 1 2 1 2 1 Z " fill="#0E0E0F" transform="translate(690,760)"/>
<path d="M0 0 C2 1 2 1 2 1 Z " fill="#110F0F" transform="translate(624,760)"/>
<path d="M0 0 C2 1 2 1 2 1 Z " fill="#0E0E0E" transform="translate(568,760)"/>
<path d="M0 0 C2 1 2 1 2 1 Z " fill="#0C0D0C" transform="translate(544,760)"/>
<path d="M0 0 C2 1 2 1 2 1 Z " fill="#0C0C0B" transform="translate(536,760)"/>
<path d="M0 0 C2 1 2 1 2 1 Z " fill="#0D0E0E" transform="translate(478,760)"/>
<path d="M0 0 C2 1 2 1 2 1 Z " fill="#131413" transform="translate(256,760)"/>
<path d="M0 0 C2 1 2 1 2 1 Z " fill="#161616" transform="translate(800,752)"/>
<path d="M0 0 C2 1 2 1 2 1 Z " fill="#100F0F" transform="translate(489,747)"/>
<path d="" fill="#0F100E" transform="translate(0,0)"/>
<path d="" fill="#161717" transform="translate(0,0)"/>
<path d="M0 0 C2 1 2 1 2 1 Z " fill="#141213" transform="translate(424,708)"/>
<path d="M0 0 C2 1 2 1 2 1 Z " fill="#171918" transform="translate(421,684)"/>
<path d="M0 0 C2 1 2 1 2 1 Z " fill="#161717" transform="translate(624,673)"/>
<path d="M0 0 C2 1 2 1 2 1 Z " fill="#141312" transform="translate(456,640)"/>
<path d="" fill="#171716" transform="translate(0,0)"/>
<path d="M0 0 C2 1 2 1 2 1 Z " fill="#181717" transform="translate(351,625)"/>
<path d="" fill="#181917" transform="translate(0,0)"/>
<path d="" fill="#171717" transform="translate(0,0)"/>
<path d="" fill="#131311" transform="translate(0,0)"/>
<path d="M0 0 C2 1 2 1 2 1 Z " fill="#1A1A1A" transform="translate(640,584)"/>
<path d="" fill="#151417" transform="translate(0,0)"/>
<path d="" fill="#1D1D1E" transform="translate(0,0)"/>
<path d="" fill="#141314" transform="translate(0,0)"/>
<path d="M0 0 C2 1 2 1 2 1 Z " fill="#131213" transform="translate(488,440)"/>
<path d="M0 0 C2 1 2 1 2 1 Z " fill="#161617" transform="translate(798,353)"/>
<path d="M0 0 C2 1 2 1 2 1 Z " fill="#191819" transform="translate(817,266)"/>
<path d="M0 0 C2 1 2 1 2 1 Z " fill="#1C1A1A" transform="translate(224,259)"/>
<path d="" fill="#161515" transform="translate(0,0)"/>
<path d="" fill="#0E0F0E" transform="translate(0,0)"/>
<path d="" fill="#151714" transform="translate(0,0)"/>
<path d="" fill="#151615" transform="translate(0,0)"/>
<path d="" fill="#121314" transform="translate(0,0)"/>
<path d="" fill="#131515" transform="translate(0,0)"/>
<path d="" fill="#121012" transform="translate(0,0)"/>
<path d="" fill="#121314" transform="translate(0,0)"/>
<path d="" fill="#131211" transform="translate(0,0)"/>
<path d="" fill="#12120E" transform="translate(0,0)"/>
<path d="" fill="#131010" transform="translate(0,0)"/>
<path d="" fill="#121212" transform="translate(0,0)"/>
<path d="" fill="#11100F" transform="translate(0,0)"/>
<path d="" fill="#121114" transform="translate(0,0)"/>
<path d="" fill="#0F1212" transform="translate(0,0)"/>
<path d="" fill="#111210" transform="translate(0,0)"/>
<path d="" fill="#121110" transform="translate(0,0)"/>
<path d="" fill="#110F12" transform="translate(0,0)"/>
<path d="" fill="#101012" transform="translate(0,0)"/>
<path d="" fill="#0F0F10" transform="translate(0,0)"/>
<path d="" fill="#121211" transform="translate(0,0)"/>
<path d="" fill="#0F1010" transform="translate(0,0)"/>
<path d="" fill="#100F10" transform="translate(0,0)"/>
<path d="" fill="#0E0F0D" transform="translate(0,0)"/>
<path d="" fill="#0E0E0E" transform="translate(0,0)"/>
<path d="" fill="#100E0F" transform="translate(0,0)"/>
<path d="" fill="#0F0F0E" transform="translate(0,0)"/>
<path d="" fill="#0F100F" transform="translate(0,0)"/>
<path d="" fill="#0F0E0E" transform="translate(0,0)"/>
<path d="" fill="#101010" transform="translate(0,0)"/>
<path d="" fill="#111012" transform="translate(0,0)"/>
<path d="" fill="#111311" transform="translate(0,0)"/>
<path d="" fill="#101211" transform="translate(0,0)"/>
<path d="" fill="#121212" transform="translate(0,0)"/>
<path d="" fill="#111111" transform="translate(0,0)"/>
<path d="" fill="#131313" transform="translate(0,0)"/>
<path d="" fill="#121110" transform="translate(0,0)"/>
<path d="" fill="#11120F" transform="translate(0,0)"/>
<path d="" fill="#111014" transform="translate(0,0)"/>
<path d="" fill="#131110" transform="translate(0,0)"/>
<path d="" fill="#151313" transform="translate(0,0)"/>
<path d="" fill="#121213" transform="translate(0,0)"/>
<path d="" fill="#131413" transform="translate(0,0)"/>
<path d="" fill="#131210" transform="translate(0,0)"/>
<path d="" fill="#141613" transform="translate(0,0)"/>
<path d="" fill="#151515" transform="translate(0,0)"/>
<path d="" fill="#171717" transform="translate(0,0)"/>
<path d="" fill="#161416" transform="translate(0,0)"/>
<path d="" fill="#1A1818" transform="translate(0,0)"/>
<path d="" fill="#19191A" transform="translate(0,0)"/>
<path d="" fill="#191817" transform="translate(0,0)"/>
<path d="" fill="#1A1818" transform="translate(0,0)"/>
<path d="" fill="#191817" transform="translate(0,0)"/>
<path d="" fill="#191618" transform="translate(0,0)"/>
<path d="" fill="#131413" transform="translate(0,0)"/>
<path d="" fill="#151313" transform="translate(0,0)"/>
<path d="" fill="#131211" transform="translate(0,0)"/>
<path d="" fill="#100F10" transform="translate(0,0)"/>
<path d="" fill="#100F0F" transform="translate(0,0)"/>
<path d="" fill="#11100E" transform="translate(0,0)"/>
<path d="" fill="#101010" transform="translate(0,0)"/>
<path d="" fill="#101010" transform="translate(0,0)"/>
<path d="" fill="#0D0E0B" transform="translate(0,0)"/>
<path d="" fill="#0C0F0D" transform="translate(0,0)"/>
<path d="" fill="#0D0C0A" transform="translate(0,0)"/>
<path d="" fill="#0F0C0D" transform="translate(0,0)"/>
<path d="" fill="#0E0E0E" transform="translate(0,0)"/>
<path d="" fill="#0D0E0F" transform="translate(0,0)"/>
<path d="" fill="#0E0E10" transform="translate(0,0)"/>
<path d="" fill="#100F12" transform="translate(0,0)"/>
<path d="" fill="#0D100E" transform="translate(0,0)"/>
<path d="" fill="#0D0F10" transform="translate(0,0)"/>
<path d="" fill="#11100E" transform="translate(0,0)"/>
<path d="" fill="#101010" transform="translate(0,0)"/>
<path d="" fill="#121311" transform="translate(0,0)"/>
<path d="" fill="#171818" transform="translate(0,0)"/>
<path d="" fill="#141315" transform="translate(0,0)"/>
<path d="" fill="#10110D" transform="translate(0,0)"/>
<path d="" fill="#171617" transform="translate(0,0)"/>
<path d="" fill="#151715" transform="translate(0,0)"/>
<path d="" fill="#181518" transform="translate(0,0)"/>
<path d="" fill="#161615" transform="translate(0,0)"/>
<path d="" fill="#1B1B1B" transform="translate(0,0)"/>
<path d="" fill="#131211" transform="translate(0,0)"/>
<path d="" fill="#1D1B18" transform="translate(0,0)"/>
<path d="" fill="#151113" transform="translate(0,0)"/>
<path d="" fill="#1A1A1A" transform="translate(0,0)"/>
<path d="" fill="#191916" transform="translate(0,0)"/>
<path d="" fill="#191816" transform="translate(0,0)"/>
<path d="" fill="#131310" transform="translate(0,0)"/>
<path d="" fill="#151212" transform="translate(0,0)"/>
<path d="" fill="#181718" transform="translate(0,0)"/>
<path d="" fill="#121111" transform="translate(0,0)"/>
<path d="" fill="#111010" transform="translate(0,0)"/>
<path d="" fill="#171619" transform="translate(0,0)"/>
<path d="" fill="#141112" transform="translate(0,0)"/>
<path d="" fill="#111211" transform="translate(0,0)"/>
<path d="" fill="#121110" transform="translate(0,0)"/>
<path d="" fill="#121112" transform="translate(0,0)"/>
<path d="" fill="#141314" transform="translate(0,0)"/>
<path d="" fill="#141212" transform="translate(0,0)"/>
<path d="" fill="#141513" transform="translate(0,0)"/>
<path d="" fill="#141315" transform="translate(0,0)"/>
<path d="" fill="#151313" transform="translate(0,0)"/>
<path d="" fill="#151413" transform="translate(0,0)"/>
<path d="" fill="#151615" transform="translate(0,0)"/>
<path d="" fill="#171616" transform="translate(0,0)"/>
<path d="" fill="#171616" transform="translate(0,0)"/>
<path d="" fill="#171715" transform="translate(0,0)"/>
<path d="" fill="#191815" transform="translate(0,0)"/>
<path d="" fill="#171517" transform="translate(0,0)"/>
<path d="" fill="#1A1818" transform="translate(0,0)"/>
<path d="" fill="#1C1A1A" transform="translate(0,0)"/>
<path d="" fill="#161517" transform="translate(0,0)"/>
<path d="" fill="#191816" transform="translate(0,0)"/>
<path d="" fill="#111413" transform="translate(0,0)"/>
<path d="" fill="#141613" transform="translate(0,0)"/>
<path d="" fill="#181616" transform="translate(0,0)"/>
<path d="" fill="#161618" transform="translate(0,0)"/>
<path d="" fill="#171615" transform="translate(0,0)"/>
<path d="" fill="#151212" transform="translate(0,0)"/>
<path d="" fill="#1A1B1B" transform="translate(0,0)"/>
<path d="" fill="#19191A" transform="translate(0,0)"/>
<path d="" fill="#171615" transform="translate(0,0)"/>
<path d="" fill="#1A1B19" transform="translate(0,0)"/>
<path d="" fill="#191718" transform="translate(0,0)"/>
<path d="" fill="#1C1A1B" transform="translate(0,0)"/>
<path d="" fill="#171716" transform="translate(0,0)"/>
<path d="" fill="#181919" transform="translate(0,0)"/>
<path d="" fill="#161413" transform="translate(0,0)"/>
<path d="" fill="#191817" transform="translate(0,0)"/>
<path d="" fill="#1A191B" transform="translate(0,0)"/>
<path d="" fill="#171A19" transform="translate(0,0)"/>
<path d="" fill="#1F1F1C" transform="translate(0,0)"/>
<path d="" fill="#1D1D1F" transform="translate(0,0)"/>
<path d="" fill="#20201F" transform="translate(0,0)"/>
<path d="" fill="#1D1B19" transform="translate(0,0)"/>
<path d="" fill="#161514" transform="translate(0,0)"/>
<path d="" fill="#1F1D1E" transform="translate(0,0)"/>
<path d="" fill="#1F1F1D" transform="translate(0,0)"/>
<path d="" fill="#181818" transform="translate(0,0)"/>
<path d="" fill="#1D1E1D" transform="translate(0,0)"/>
<path d="" fill="#1E1D1E" transform="translate(0,0)"/>
<path d="" fill="#121211" transform="translate(0,0)"/>
<path d="" fill="#161515" transform="translate(0,0)"/>
<path d="" fill="#1A1A1C" transform="translate(0,0)"/>
<path d="" fill="#131415" transform="translate(0,0)"/>
<path d="" fill="#1B1C1B" transform="translate(0,0)"/>
<path d="" fill="#171615" transform="translate(0,0)"/>
<path d="" fill="#171618" transform="translate(0,0)"/>
<path d="" fill="#131314" transform="translate(0,0)"/>
<path d="" fill="#141214" transform="translate(0,0)"/>
<path d="" fill="#131212" transform="translate(0,0)"/>
<path d="" fill="#121411" transform="translate(0,0)"/>
<path d="" fill="#171818" transform="translate(0,0)"/>
<path d="" fill="#191A19" transform="translate(0,0)"/>
<path d="" fill="#121211" transform="translate(0,0)"/>
<path d="" fill="#181615" transform="translate(0,0)"/>
<path d="" fill="#151414" transform="translate(0,0)"/>
<path d="" fill="#191919" transform="translate(0,0)"/>
<path d="" fill="#181717" transform="translate(0,0)"/>
<path d="" fill="#171715" transform="translate(0,0)"/>
<path d="" fill="#161414" transform="translate(0,0)"/>
<path d="" fill="#101313" transform="translate(0,0)"/>
<path d="" fill="#181516" transform="translate(0,0)"/>
<path d="" fill="#171817" transform="translate(0,0)"/>
<path d="" fill="#191919" transform="translate(0,0)"/>
<path d="" fill="#1A1615" transform="translate(0,0)"/>
<path d="" fill="#171316" transform="translate(0,0)"/>
<path d="" fill="#1D1B19" transform="translate(0,0)"/>
<path d="" fill="#131213" transform="translate(0,0)"/>
<path d="" fill="#191819" transform="translate(0,0)"/>
<path d="" fill="#1A1B19" transform="translate(0,0)"/>
<path d="" fill="#171819" transform="translate(0,0)"/>
<path d="" fill="#1A1718" transform="translate(0,0)"/>
<path d="" fill="#191919" transform="translate(0,0)"/>
<path d="" fill="#171617" transform="translate(0,0)"/>
<path d="" fill="#181717" transform="translate(0,0)"/>
<path d="" fill="#1C1B1B" transform="translate(0,0)"/>
<path d="" fill="#161415" transform="translate(0,0)"/>
<path d="" fill="#1B1718" transform="translate(0,0)"/>
<path d="" fill="#191A18" transform="translate(0,0)"/>
<path d="" fill="#1B1D1B" transform="translate(0,0)"/>
<path d="" fill="#151615" transform="translate(0,0)"/>
<path d="" fill="#1B1D1A" transform="translate(0,0)"/>
<path d="" fill="#1D1D1B" transform="translate(0,0)"/>
<path d="" fill="#1D1E1B" transform="translate(0,0)"/>
<path d="" fill="#1B1B1C" transform="translate(0,0)"/>
<path d="" fill="#1E1C1D" transform="translate(0,0)"/>
<path d="" fill="#1B1C1C" transform="translate(0,0)"/>
<path d="" fill="#171416" transform="translate(0,0)"/>
<path d="" fill="#141515" transform="translate(0,0)"/>
<path d="" fill="#151518" transform="translate(0,0)"/>
<path d="" fill="#1E1D1D" transform="translate(0,0)"/>
<path d="" fill="#161415" transform="translate(0,0)"/>
<path d="" fill="#161616" transform="translate(0,0)"/>
<path d="" fill="#22201D" transform="translate(0,0)"/>
<path d="" fill="#1B1C1E" transform="translate(0,0)"/>
<path d="" fill="#151716" transform="translate(0,0)"/>
<path d="" fill="#1B1A1C" transform="translate(0,0)"/>
<path d="" fill="#1A1C1C" transform="translate(0,0)"/>
<path d="" fill="#141414" transform="translate(0,0)"/>
<path d="" fill="#1A191A" transform="translate(0,0)"/>
<path d="" fill="#1C1C1B" transform="translate(0,0)"/>
<path d="" fill="#121413" transform="translate(0,0)"/>
<path d="" fill="#191A1A" transform="translate(0,0)"/>
<path d="" fill="#181B19" transform="translate(0,0)"/>
<path d="" fill="#1A1815" transform="translate(0,0)"/>
<path d="" fill="#171719" transform="translate(0,0)"/>
<path d="" fill="#191716" transform="translate(0,0)"/>
<path d="" fill="#181A17" transform="translate(0,0)"/>
<path d="" fill="#151516" transform="translate(0,0)"/>
<path d="" fill="#171717" transform="translate(0,0)"/>
<path d="" fill="#111415" transform="translate(0,0)"/>
<path d="" fill="#131614" transform="translate(0,0)"/>
<path d="" fill="#141213" transform="translate(0,0)"/>
<path d="" fill="#181815" transform="translate(0,0)"/>
<path d="" fill="#17181B" transform="translate(0,0)"/>
<path d="" fill="#191918" transform="translate(0,0)"/>
<path d="" fill="#151515" transform="translate(0,0)"/>
<path d="" fill="#191718" transform="translate(0,0)"/>
<path d="" fill="#1A1B1A" transform="translate(0,0)"/>
<path d="" fill="#181B17" transform="translate(0,0)"/>
<path d="" fill="#151516" transform="translate(0,0)"/>
<path d="" fill="#161616" transform="translate(0,0)"/>
<path d="" fill="#181917" transform="translate(0,0)"/>
<path d="" fill="#1A1A18" transform="translate(0,0)"/>
<path d="" fill="#181918" transform="translate(0,0)"/>
<path d="" fill="#1A1918" transform="translate(0,0)"/>
<path d="" fill="#1A1716" transform="translate(0,0)"/>
<path d="" fill="#141713" transform="translate(0,0)"/>
<path d="" fill="#181717" transform="translate(0,0)"/>
<path d="" fill="#131313" transform="translate(0,0)"/>
<path d="" fill="#181715" transform="translate(0,0)"/>
<path d="" fill="#141414" transform="translate(0,0)"/>
<path d="" fill="#151414" transform="translate(0,0)"/>
<path d="" fill="#181516" transform="translate(0,0)"/>
<path d="" fill="#151515" transform="translate(0,0)"/>
<path d="" fill="#171918" transform="translate(0,0)"/>
<path d="" fill="#141213" transform="translate(0,0)"/>
<path d="" fill="#141415" transform="translate(0,0)"/>
<path d="" fill="#161616" transform="translate(0,0)"/>
<path d="" fill="#1C1919" transform="translate(0,0)"/>
<path d="" fill="#19181A" transform="translate(0,0)"/>
<path d="" fill="#171618" transform="translate(0,0)"/>
<path d="" fill="#181816" transform="translate(0,0)"/>
<path d="" fill="#1B1818" transform="translate(0,0)"/>
<path d="" fill="#191719" transform="translate(0,0)"/>
<path d="" fill="#171617" transform="translate(0,0)"/>
<path d="" fill="#161616" transform="translate(0,0)"/>
<path d="" fill="#191817" transform="translate(0,0)"/>
<path d="" fill="#1A1A17" transform="translate(0,0)"/>
<path d="" fill="#181716" transform="translate(0,0)"/>
<path d="" fill="#181818" transform="translate(0,0)"/>
<path d="" fill="#161416" transform="translate(0,0)"/>
<path d="" fill="#141314" transform="translate(0,0)"/>
<path d="" fill="#131413" transform="translate(0,0)"/>
<path d="" fill="#181816" transform="translate(0,0)"/>
<path d="" fill="#1B1A18" transform="translate(0,0)"/>
<path d="" fill="#191918" transform="translate(0,0)"/>
<path d="" fill="#121414" transform="translate(0,0)"/>
<path d="" fill="#1A1A18" transform="translate(0,0)"/>
<path d="" fill="#171618" transform="translate(0,0)"/>
<path d="" fill="#1B1B1A" transform="translate(0,0)"/>
<path d="" fill="#171515" transform="translate(0,0)"/>
<path d="" fill="#111411" transform="translate(0,0)"/>
<path d="" fill="#111112" transform="translate(0,0)"/>
<path d="" fill="#141213" transform="translate(0,0)"/>
<path d="" fill="#151414" transform="translate(0,0)"/>
<path d="" fill="#141312" transform="translate(0,0)"/>
<path d="" fill="#151515" transform="translate(0,0)"/>
<path d="" fill="#1A1A1B" transform="translate(0,0)"/>
<path d="" fill="#1E1C1C" transform="translate(0,0)"/>
<path d="" fill="#1F191C" transform="translate(0,0)"/>
<path d="" fill="#201E1D" transform="translate(0,0)"/>
<path d="" fill="#1F1D1C" transform="translate(0,0)"/>
<path d="" fill="#161616" transform="translate(0,0)"/>
<path d="" fill="#141516" transform="translate(0,0)"/>
<path d="" fill="#151615" transform="translate(0,0)"/>
<path d="" fill="#191616" transform="translate(0,0)"/>
<path d="" fill="#181716" transform="translate(0,0)"/>
<path d="" fill="#19191A" transform="translate(0,0)"/>
<path d="" fill="#151513" transform="translate(0,0)"/>
<path d="" fill="#181717" transform="translate(0,0)"/>
<path d="" fill="#181816" transform="translate(0,0)"/>
<path d="" fill="#161517" transform="translate(0,0)"/>
<path d="" fill="#171617" transform="translate(0,0)"/>
<path d="" fill="#151717" transform="translate(0,0)"/>
<path d="" fill="#181718" transform="translate(0,0)"/>
<path d="" fill="#1E1E1E" transform="translate(0,0)"/>
</svg>
