<svg xmlns="http://www.w3.org/2000/svg" width="366" height="231" viewBox="0 0 366 231">
<g>
<path d="M 180.00 166.00 C180.00,191.74 179.73,199.00 178.75,198.98 C178.06,198.97 160.85,189.34 140.50,177.59 C103.94,156.48 99.98,153.68 100.02,149.00 C100.03,147.68 148.29,119.00 150.49,119.00 C150.91,119.00 156.77,122.15 163.50,126.00 C170.23,129.85 176.70,133.00 177.87,133.00 L 180.00 133.00 Z" fill="rgb(20,139,247)"/>
<path d="M 193.61 211.79 C182.78,217.95 179.39,218.20 170.50,213.48 C166.65,211.44 160.35,207.86 156.50,205.53 C152.65,203.20 137.12,194.20 122.00,185.53 C106.88,176.86 93.04,168.67 91.25,167.33 C89.99,166.39 88.98,165.65 88.17,164.74 C84.90,161.06 84.90,154.48 84.90,119.53 L 84.90 117.84 C84.90,95.25 85.17,76.50 85.50,76.16 C85.84,75.83 88.45,76.85 91.31,78.44 C94.16,80.02 112.70,90.40 132.50,101.51 C152.30,112.61 171.21,123.19 174.53,125.01 L 180.56 128.33 L 198.03 118.55 C207.64,113.17 228.69,101.33 244.81,92.24 C263.83,81.52 274.46,76.06 275.09,76.69 C275.70,77.30 275.96,93.15 275.78,119.08 L 275.50 160.50 L 273.19 163.74 C271.90,165.54 266.79,169.39 261.69,172.39 C250.40,179.04 204.39,205.67 193.61,211.79 ZM 180.00 166.00 L 180.00 133.00 L 177.87 133.00 C176.70,133.00 170.23,129.85 163.50,126.00 C156.77,122.15 150.91,119.00 150.49,119.00 C148.41,119.00 105.32,144.55 100.47,148.53 C100.06,144.47 100.01,136.85 100.00,120.36 L 100.00 90.22 L 91.50 86.22 L 91.24 121.85 C90.99,155.01 91.10,157.66 92.80,159.93 C93.80,161.27 105.84,168.86 119.56,176.79 C133.28,184.72 151.70,195.40 160.50,200.52 C172.61,207.56 177.42,209.85 180.28,209.91 C183.46,209.99 190.43,206.31 224.78,186.45 C247.17,173.49 266.40,162.01 267.50,160.92 C269.41,159.03 269.51,157.42 269.79,123.79 C269.95,104.46 269.84,88.03 269.56,87.29 C269.15,86.22 268.21,86.36 265.02,87.99 L 261.00 90.04 L 261.00 117.96 C261.00,134.57 260.61,146.12 260.05,146.47 C259.52,146.79 248.96,141.19 236.57,134.02 C224.18,126.85 212.98,120.49 211.67,119.90 C209.61,118.96 207.79,119.68 197.45,125.55 C190.93,129.25 184.45,132.59 183.05,132.96 L 180.50 133.64 L 180.24 166.32 C180.13,179.02 179.97,187.50 179.72,192.63 C179.93,187.66 180.00,179.29 180.00,166.00 ZM 123.59 56.38 C107.68,65.52 94.63,72.99 94.59,72.98 C93.54,72.71 89.68,68.99 90.06,68.61 C90.75,67.92 158.28,28.97 167.99,23.66 C174.18,20.28 176.38,19.58 180.74,19.65 C185.67,19.72 187.90,20.81 216.25,37.09 C219.75,39.10 223.04,40.98 226.11,42.75 C263.09,63.96 270.17,68.02 269.63,69.91 C269.46,70.52 268.51,70.90 267.50,71.55 C265.73,72.69 264.40,72.20 256.00,67.30 C201.22,35.36 184.10,26.00 180.41,26.00 C180.25,26.00 180.10,26.00 179.95,26.00 C179.72,25.99 179.51,25.99 179.29,26.00 C176.19,26.08 173.13,27.91 123.59,56.38 ZM 101.53 152.90 C104.70,156.65 114.10,162.34 140.50,177.59 C145.48,180.47 150.28,183.22 154.69,185.73 C150.34,183.27 145.62,180.57 140.72,177.75 C113.24,161.96 103.26,155.73 101.87,153.50 C101.75,153.30 101.64,153.11 101.53,152.90 ZM 178.75 198.98 L 178.75 198.98 C178.92,198.98 179.08,198.75 179.21,198.23 C179.09,198.75 178.97,199.00 178.83,199.00 C178.81,199.00 178.79,198.99 178.75,198.98 Z" fill="rgb(89,41,110)"/>
<path d="M 169.73 107.79 C166.59,109.55 163.91,110.99 163.77,110.99 C163.46,110.97 137.01,96.35 119.00,86.23 C112.12,82.37 106.50,78.66 106.50,77.99 C106.50,77.31 122.03,67.83 141.00,56.90 C173.18,38.38 175.84,37.04 180.50,37.02 C185.08,37.01 187.27,38.03 206.50,49.10 C218.05,55.75 233.89,64.86 241.71,69.35 C252.66,75.63 255.64,77.77 254.71,78.66 C253.49,79.84 243.05,85.77 213.33,102.18 L 197.16 111.11 L 191.37 107.84 C183.45,103.37 177.58,103.35 169.73,107.79 Z" fill="rgb(119,34,211)"/>
<path d="M 260.85 133.92 C260.71,148.93 260.30,151.07 258.86,153.76 C258.19,155.01 253.11,158.65 247.57,161.84 C242.03,165.03 225.25,174.70 210.28,183.32 C193.65,192.90 182.01,199.00 180.37,199.00 C180.14,199.00 179.71,198.87 179.10,198.64 C179.14,198.53 179.17,198.39 179.21,198.23 C179.43,197.34 179.60,195.58 179.72,192.63 C179.72,192.63 179.72,192.63 179.72,192.62 C179.97,187.49 180.13,179.01 180.24,166.32 L 180.50 133.64 L 183.05 132.96 C184.45,132.59 190.93,129.25 197.45,125.55 C207.79,119.68 209.61,118.96 211.67,119.90 C212.98,120.49 224.18,126.85 236.57,134.02 C248.96,141.19 259.52,146.79 260.05,146.47 C260.41,146.25 260.69,141.55 260.85,133.92 ZM 162.08 189.93 C152.55,184.68 140.71,177.90 130.05,171.59 C133.27,173.46 136.82,175.51 140.72,177.75 C145.62,180.57 150.34,183.27 154.69,185.73 C157.30,187.22 159.78,188.63 162.08,189.93 Z" fill="rgb(235,35,110)"/>
<path d="M 0.00 115.50 L 0.00 0.00 L 183.00 0.00 L 366.00 0.00 L 366.00 115.50 L 366.00 231.00 L 183.00 231.00 L 0.00 231.00 L 0.00 115.50 ZM 193.61 211.79 C204.39,205.67 250.40,179.04 261.69,172.39 C266.79,169.39 271.90,165.54 273.19,163.74 L 275.50 160.50 L 275.78 119.08 C275.96,93.15 275.70,77.30 275.09,76.69 C274.46,76.06 263.83,81.52 244.81,92.24 C228.69,101.33 207.64,113.17 198.03,118.55 L 180.56 128.33 L 174.53 125.01 C171.21,123.19 152.30,112.61 132.50,101.51 C112.70,90.40 94.16,80.02 91.31,78.44 C88.45,76.85 85.84,75.83 85.50,76.16 C85.17,76.50 84.90,95.25 84.90,117.84 C84.90,163.15 84.82,162.52 91.25,167.33 C93.04,168.67 106.88,176.86 122.00,185.53 C137.12,194.20 152.65,203.20 156.50,205.53 C160.35,207.86 166.65,211.44 170.50,213.48 C179.39,218.20 182.78,217.95 193.61,211.79 ZM 169.73 107.79 C177.58,103.35 183.45,103.37 191.37,107.84 L 197.16 111.11 L 213.33 102.18 C243.05,85.77 253.49,79.84 254.71,78.66 C255.64,77.77 252.66,75.63 241.71,69.35 C233.89,64.86 218.05,55.75 206.50,49.10 C187.27,38.03 185.08,37.01 180.50,37.02 C175.84,37.04 173.18,38.38 141.00,56.90 C122.03,67.83 106.50,77.31 106.50,77.99 C106.50,78.66 112.12,82.37 119.00,86.23 C137.01,96.35 163.46,110.97 163.77,110.99 C163.91,110.99 166.59,109.55 169.73,107.79 ZM 123.59 56.38 C178.71,24.71 176.29,26.00 180.41,26.00 C184.10,26.00 201.22,35.36 256.00,67.30 C264.40,72.20 265.73,72.69 267.50,71.55 C271.91,68.70 275.34,71.01 216.25,37.09 C187.90,20.81 185.67,19.72 180.74,19.65 C176.38,19.58 174.18,20.28 167.99,23.66 C158.28,28.97 90.75,67.92 90.06,68.61 C89.68,68.99 93.54,72.71 94.59,72.98 C94.63,72.99 107.68,65.52 123.59,56.38 ZM 160.50 200.52 C151.70,195.40 133.28,184.72 119.56,176.79 C105.84,168.86 93.80,161.27 92.80,159.93 C91.10,157.66 90.99,155.01 91.24,121.85 L 91.50 86.22 L 95.75 88.22 L 100.00 90.22 L 100.00 120.36 C100.01,148.04 100.16,150.74 101.87,153.50 C104.24,157.30 176.18,199.00 180.37,199.00 C182.01,199.00 193.65,192.90 210.28,183.32 C225.25,174.70 242.03,165.03 247.57,161.84 C253.11,158.65 258.19,155.01 258.86,153.76 C260.71,150.30 260.86,147.76 260.93,117.77 L 261.00 90.04 L 265.02 87.99 C268.21,86.36 269.15,86.22 269.56,87.29 C269.84,88.03 269.95,104.46 269.79,123.79 C269.51,157.42 269.41,159.03 267.50,160.92 C266.40,162.01 247.17,173.49 224.78,186.45 C190.43,206.31 183.46,209.99 180.28,209.91 C177.42,209.85 172.61,207.56 160.50,200.52 Z" fill="transparent"/>
</g>
</svg>